<svg xmlns="http://www.w3.org/2000/svg" viewBox="0 0 980 440" font-family="Georgia, 'Times New Roman', serif">
<rect x="0" y="0" width="980" height="440" fill="#faf4e8"/><text x="490.0" y="40" text-anchor="middle" font-size="25" fill="#2b2118" font-weight="bold">Section 2b · From Billet to Octagon</text><text x="490.0" y="66" text-anchor="middle" font-size="14" fill="#5a4a3a" font-style="italic">Shave two radial faces flat &amp; parallel · then two tangential faces square · then knock off the four corners</text><polygon points="68,158 92,153 116,163 140,162 164,155 188,158 212,158 206,182 206,206 218,230 218,254 207,278 212,302 188,306 164,301 140,304 116,301 92,300 68,302 64,278 62,254 67,230 63,206 62,182 68,158" fill="#d9b98a" stroke="#2b2118" stroke-width="2.2"/><path d="M68 158 Q 58 230 68 302" fill="none" stroke="#c39f6f" stroke-width="6" opacity="0.7"/><path d="M116 215.6 Q 140 206 164 215.6" fill="none" stroke="#c39f6f" stroke-width="1" opacity="0.55"/><path d="M94 202.4 Q 140 184 186 202.4" fill="none" stroke="#c39f6f" stroke-width="1" opacity="0.55"/><text x="140" y="340" text-anchor="middle" font-size="15" fill="#2b2118" font-weight="bold">1 · Rough riven billet</text><text x="140" y="360" text-anchor="middle" font-size="11.5" fill="#5a4a3a">bark &amp; round, oversize</text><polygon points="298,302 298,158 322,157 346,159 370,164 394,158 418,158 442,158 442,302 418,305 394,299 370,299 346,297 322,306 298,302" fill="#d9b98a" stroke="#2b2118" stroke-width="2.2"/><g clip-path="url(#clip2)"><path d="M298 158.0 Q 370 144.0 442 158.0" fill="none" stroke="#c39f6f" stroke-width="1.2" opacity="0.8"/><path d="M298 194.0 Q 370 180.0 442 194.0" fill="none" stroke="#c39f6f" stroke-width="1.2" opacity="0.8"/><path d="M298 230.0 Q 370 216.0 442 230.0" fill="none" stroke="#c39f6f" stroke-width="1.2" opacity="0.8"/><path d="M298 266.0 Q 370 252.0 442 266.0" fill="none" stroke="#c39f6f" stroke-width="1.2" opacity="0.8"/><path d="M298 302.0 Q 370 288.0 442 302.0" fill="none" stroke="#c39f6f" stroke-width="1.2" opacity="0.8"/></g><clipPath id="clip2"><polygon points="298,302 298,158 322,157 346,159 370,164 394,158 418,158 442,158 442,302 418,305 394,299 370,299 346,297 322,306 298,302"/></clipPath><line x1="298" y1="302" x2="298" y2="158" stroke="#a8442a" stroke-width="3"/><line x1="442" y1="302" x2="442" y2="158" stroke="#a8442a" stroke-width="3"/><text x="370" y="340" text-anchor="middle" font-size="15" fill="#2b2118" font-weight="bold">2 · Two parallel faces</text><text x="370" y="360" text-anchor="middle" font-size="11.5" fill="#5a4a3a">radial faces: flat, straight, parallel</text><rect x="528" y="158" width="144" height="144" fill="#d9b98a" stroke="#2b2118" stroke-width="2.5"/><g clip-path="url(#clip3)"><path d="M528 158.0 Q 600 144.0 672 158.0" fill="none" stroke="#c39f6f" stroke-width="1.2" opacity="0.8"/><path d="M528 194.0 Q 600 180.0 672 194.0" fill="none" stroke="#c39f6f" stroke-width="1.2" opacity="0.8"/><path d="M528 230.0 Q 600 216.0 672 230.0" fill="none" stroke="#c39f6f" stroke-width="1.2" opacity="0.8"/><path d="M528 266.0 Q 600 252.0 672 266.0" fill="none" stroke="#c39f6f" stroke-width="1.2" opacity="0.8"/><path d="M528 302.0 Q 600 288.0 672 302.0" fill="none" stroke="#c39f6f" stroke-width="1.2" opacity="0.8"/></g><clipPath id="clip3"><rect x="528" y="158" width="144" height="144"/></clipPath><path d="M544 302 L 544 286 L 528 286" fill="none" stroke="#a8442a" stroke-width="2"/><polygon points="512,144 512,118 688,118 688,144 674,144 674,130 526,130 526,144" fill="#ead8b8" stroke="#2b2118" stroke-width="1.6"/><text x="600" y="127.5" text-anchor="middle" font-size="9.5" fill="#5a4a3a">go/no-go</text><line x1="600" y1="148" x2="600" y2="152" stroke="#5a4a3a" stroke-width="1" marker-end="url(#ah)"/><text x="600" y="340" text-anchor="middle" font-size="15" fill="#2b2118" font-weight="bold">3 · Four-square</text><text x="600" y="360" text-anchor="middle" font-size="11.5" fill="#5a4a3a">all faces square · go/no-go to size</text><polygon points="800,158 860,158 902,200 902,260 860,302 800,302 758,260 758,200" fill="#d9b98a" stroke="#2b2118" stroke-width="2.5"/><g clip-path="url(#clip4)"><path d="M758 158.0 Q 830 144.0 902 158.0" fill="none" stroke="#c39f6f" stroke-width="1.2" opacity="0.8"/><path d="M758 194.0 Q 830 180.0 902 194.0" fill="none" stroke="#c39f6f" stroke-width="1.2" opacity="0.8"/><path d="M758 230.0 Q 830 216.0 902 230.0" fill="none" stroke="#c39f6f" stroke-width="1.2" opacity="0.8"/><path d="M758 266.0 Q 830 252.0 902 266.0" fill="none" stroke="#c39f6f" stroke-width="1.2" opacity="0.8"/><path d="M758 302.0 Q 830 288.0 902 302.0" fill="none" stroke="#c39f6f" stroke-width="1.2" opacity="0.8"/></g><clipPath id="clip4"><polygon points="800,158 860,158 902,200 902,260 860,302 800,302 758,260 758,200"/></clipPath><polygon points="758,158 800,158 758,200" fill="none" stroke="#a8442a" stroke-width="1.4" stroke-dasharray="3,3"/><polygon points="902,158 860,158 902,200" fill="none" stroke="#a8442a" stroke-width="1.4" stroke-dasharray="3,3"/><polygon points="902,302 860,302 902,260" fill="none" stroke="#a8442a" stroke-width="1.4" stroke-dasharray="3,3"/><polygon points="758,302 800,302 758,260" fill="none" stroke="#a8442a" stroke-width="1.4" stroke-dasharray="3,3"/><text x="830" y="340" text-anchor="middle" font-size="15" fill="#2b2118" font-weight="bold">4 · Octagonal</text><text x="830" y="360" text-anchor="middle" font-size="11.5" fill="#5a4a3a">equal facets — never bell-bottomed</text><line x1="220" y1="230" x2="290" y2="230" stroke="#2b2118" stroke-width="2.5" marker-end="url(#ah)"/><line x1="450" y1="230" x2="520" y2="230" stroke="#2b2118" stroke-width="2.5" marker-end="url(#ah)"/><line x1="680" y1="230" x2="750" y2="230" stroke="#2b2118" stroke-width="2.5" marker-end="url(#ah)"/><defs><marker id="ah" markerWidth="10" markerHeight="10" refX="6" refY="3" orient="auto"><path d="M0,0 L7,3 L0,6 Z" fill="#2b2118"/></marker></defs><text x="490.0" y="424" text-anchor="middle" font-size="12" fill="#5a4a3a" font-style="italic">Taper the legs/back-sticks while still square (it&#39;s faster), then octagonalize. Eight facets read as “round” to the eye and hand. (Buchanan; Alexander)</text></svg>