<svg xmlns="http://www.w3.org/2000/svg" viewBox="0 0 900 520" font-family="Georgia, 'Times New Roman', serif">
<rect x="0" y="0" width="900" height="520" fill="#faf4e8"/><defs><marker id="ah" markerWidth="10" markerHeight="10" refX="6" refY="3" orient="auto"><path d="M0,0 L7,3 L0,6 Z" fill="#2b2118"/></marker><marker id="ahr" markerWidth="9" markerHeight="9" refX="6" refY="3" orient="auto"><path d="M0,0 L7,3 L0,6 Z" fill="#a8442a"/></marker></defs><text x="450.0" y="40" text-anchor="middle" font-size="24" fill="#2b2118" font-weight="bold">Reading a Riven Face: Radial vs. Tangential</text><text x="200.0" y="92" text-anchor="middle" font-size="15" fill="#a8442a" font-weight="bold">RADIAL face</text><text x="200.0" y="108" text-anchor="middle" font-size="12" fill="#5a4a3a">rings cross the face → straight lines</text><polygon points="130,150 270,150 270,290 130,290" fill="#ead8b8" stroke="#2b2118" stroke-width="2.5"/><line x1="130" y1="170" x2="270" y2="170" stroke="#c39f6f" stroke-width="2"/><line x1="130" y1="190" x2="270" y2="190" stroke="#c39f6f" stroke-width="2"/><line x1="130" y1="210" x2="270" y2="210" stroke="#c39f6f" stroke-width="2"/><line x1="130" y1="230" x2="270" y2="230" stroke="#c39f6f" stroke-width="2"/><line x1="130" y1="250" x2="270" y2="250" stroke="#c39f6f" stroke-width="2"/><line x1="130" y1="270" x2="270" y2="270" stroke="#c39f6f" stroke-width="2"/><polygon points="130,150 170,110 310,110 270,150" fill="#d9b98a" stroke="#2b2118" stroke-width="2.5"/><path d="M170 125.0 Q 240.0 111.0 310 125.0" fill="none" stroke="#c39f6f" stroke-width="1.1"/><path d="M170 135.0 Q 240.0 121.0 310 135.0" fill="none" stroke="#c39f6f" stroke-width="1.1"/><path d="M170 145.0 Q 240.0 131.0 310 145.0" fill="none" stroke="#c39f6f" stroke-width="1.1"/><polygon points="270,150 310,110 310,250 270,290" fill="#c39f6f" stroke="#2b2118" stroke-width="2.5"/><text x="200.0" y="316" text-anchor="middle" font-size="11.5" fill="#5a4a3a">use this face wide on arms &amp; crest</text><text x="640.0" y="92" text-anchor="middle" font-size="15" fill="#2b2118" font-weight="bold">TANGENTIAL face</text><text x="640.0" y="108" text-anchor="middle" font-size="12" fill="#5a4a3a">rings along the face → “cathedrals”</text><polygon points="570,150 710,150 710,290 570,290" fill="#ead8b8" stroke="#2b2118" stroke-width="2.5"/><path d="M570 186 Q 640.0 160 710 186" fill="none" stroke="#c39f6f" stroke-width="1.8"/><path d="M570 214 Q 640.0 188 710 214" fill="none" stroke="#c39f6f" stroke-width="1.8"/><path d="M570 242 Q 640.0 216 710 242" fill="none" stroke="#c39f6f" stroke-width="1.8"/><path d="M570 270 Q 640.0 244 710 270" fill="none" stroke="#c39f6f" stroke-width="1.8"/><polygon points="570,150 610,110 750,110 710,150" fill="#d9b98a" stroke="#2b2118" stroke-width="2.5"/><line x1="638" y1="113" x2="598" y2="148" stroke="#c39f6f" stroke-width="1.1"/><line x1="666" y1="113" x2="626" y2="148" stroke="#c39f6f" stroke-width="1.1"/><line x1="694" y1="113" x2="654" y2="148" stroke="#c39f6f" stroke-width="1.1"/><line x1="722" y1="113" x2="682" y2="148" stroke="#c39f6f" stroke-width="1.1"/><polygon points="710,150 750,110 750,250 710,290" fill="#c39f6f" stroke="#2b2118" stroke-width="2.5"/><line x1="450.0" y1="135" x2="450.0" y2="350" stroke="#c39f6f" stroke-width="1" stroke-dasharray="3,5"/><text x="450.0" y="400" text-anchor="middle" font-size="16" fill="#2b2118" font-weight="bold">Shave “downhill,” with the grain</text><rect x="120" y="418" width="220" height="44" rx="6" fill="#d9b98a" stroke="#2b2118" stroke-width="2"/><line x1="128" y1="422" x2="141" y2="458" stroke="#c39f6f" stroke-width="1.3"/><line x1="146" y1="422" x2="159" y2="458" stroke="#c39f6f" stroke-width="1.3"/><line x1="164" y1="422" x2="177" y2="458" stroke="#c39f6f" stroke-width="1.3"/><line x1="182" y1="422" x2="195" y2="458" stroke="#c39f6f" stroke-width="1.3"/><line x1="200" y1="422" x2="213" y2="458" stroke="#c39f6f" stroke-width="1.3"/><line x1="218" y1="422" x2="231" y2="458" stroke="#c39f6f" stroke-width="1.3"/><line x1="236" y1="422" x2="249" y2="458" stroke="#c39f6f" stroke-width="1.3"/><line x1="254" y1="422" x2="267" y2="458" stroke="#c39f6f" stroke-width="1.3"/><line x1="272" y1="422" x2="285" y2="458" stroke="#c39f6f" stroke-width="1.3"/><line x1="290" y1="422" x2="303" y2="458" stroke="#c39f6f" stroke-width="1.3"/><line x1="308" y1="422" x2="321" y2="458" stroke="#c39f6f" stroke-width="1.3"/><line x1="326" y1="422" x2="339" y2="458" stroke="#c39f6f" stroke-width="1.3"/><line x1="318" y1="440" x2="368" y2="440" stroke="#5b6e4f" stroke-width="3" marker-end="url(#ah)"/><text x="230" y="484" text-anchor="middle" font-size="12.5" fill="#5b6e4f" font-weight="bold">GOOD: blade follows fibers down (clean)</text><rect x="540" y="418" width="220" height="44" rx="6" fill="#d9b98a" stroke="#2b2118" stroke-width="2"/><line x1="561" y1="422" x2="548" y2="458" stroke="#c39f6f" stroke-width="1.3"/><line x1="579" y1="422" x2="566" y2="458" stroke="#c39f6f" stroke-width="1.3"/><line x1="597" y1="422" x2="584" y2="458" stroke="#c39f6f" stroke-width="1.3"/><line x1="615" y1="422" x2="602" y2="458" stroke="#c39f6f" stroke-width="1.3"/><line x1="633" y1="422" x2="620" y2="458" stroke="#c39f6f" stroke-width="1.3"/><line x1="651" y1="422" x2="638" y2="458" stroke="#c39f6f" stroke-width="1.3"/><line x1="669" y1="422" x2="656" y2="458" stroke="#c39f6f" stroke-width="1.3"/><line x1="687" y1="422" x2="674" y2="458" stroke="#c39f6f" stroke-width="1.3"/><line x1="705" y1="422" x2="692" y2="458" stroke="#c39f6f" stroke-width="1.3"/><line x1="723" y1="422" x2="710" y2="458" stroke="#c39f6f" stroke-width="1.3"/><line x1="741" y1="422" x2="728" y2="458" stroke="#c39f6f" stroke-width="1.3"/><line x1="759" y1="422" x2="746" y2="458" stroke="#c39f6f" stroke-width="1.3"/><line x1="738" y1="440" x2="788" y2="440" stroke="#a8442a" stroke-width="3" marker-end="url(#ahr)"/><text x="650" y="484" text-anchor="middle" font-size="12.5" fill="#a8442a" font-weight="bold">BAD: blade digs under fibers (tears)</text></svg>